<svg xmlns="http://www.w3.org/2000/svg" viewBox="0 0 64 64">
  <defs>
    <linearGradient id="g" x1="0" y1="0" x2="1" y2="1">
      <stop offset="0%" stop-color="#ff2d4a"/>
      <stop offset="55%" stop-color="#ff5577"/>
      <stop offset="100%" stop-color="#ff7a2d"/>
    </linearGradient>
    <filter id="b" x="-50%" y="-50%" width="200%" height="200%">
      <feGaussianBlur stdDeviation="1" result="b"/>
      <feMerge><feMergeNode in="b"/><feMergeNode in="SourceGraphic"/></feMerge>
    </filter>
  </defs>
  <rect x="2" y="2" width="60" height="60" rx="12" fill="#0a0a0c"/>
  <rect x="2" y="2" width="60" height="60" rx="12" fill="none" stroke="url(#g)" stroke-width="2"/>
  <g transform="translate(8 6) scale(0.48 0.48)" filter="url(#b)">
    <circle cx="28" cy="22" r="9" fill="url(#g)"/>
    <circle cx="42" cy="14" r="10" fill="url(#g)"/>
    <circle cx="58" cy="14" r="10" fill="url(#g)"/>
    <circle cx="72" cy="22" r="9" fill="url(#g)"/>
    <ellipse cx="50" cy="40" rx="22" ry="20" fill="url(#g)"/>
    <path d="M 30 48 C 26 60, 30 78, 42 84 C 47 87, 53 87, 58 84 C 70 78, 74 60, 70 48 C 65 50, 55 52, 50 52 C 45 52, 35 50, 30 48 Z" fill="url(#g)"/>
    <path d="M 20 50 C 14 52, 12 62, 18 66 C 22 66, 26 64, 28 60 Z" fill="url(#g)"/>
    <path d="M 80 50 C 86 52, 88 62, 82 66 C 78 66, 74 64, 72 60 Z" fill="url(#g)"/>
    <circle cx="42" cy="40" r="2.6" fill="#0a0a0c"/>
    <circle cx="58" cy="40" r="2.6" fill="#0a0a0c"/>
    <ellipse cx="50" cy="52" rx="4.5" ry="1.6" fill="#0a0a0c"/>
  </g>
</svg>
