<svg xmlns="http://www.w3.org/2000/svg" viewBox="0 0 64 64">
  <defs>
    <linearGradient id="g" x1="0" y1="0" x2="1" y2="1">
      <stop offset="0%" stop-color="#ff2d4a"/>
      <stop offset="55%" stop-color="#ff5577"/>
      <stop offset="100%" stop-color="#ff7a2d"/>
    </linearGradient>
    <filter id="b" x="-50%" y="-50%" width="200%" height="200%">
      <feGaussianBlur stdDeviation="0.9" result="b"/>
      <feMerge><feMergeNode in="b"/><feMergeNode in="SourceGraphic"/></feMerge>
    </filter>
  </defs>
  <rect x="2" y="2" width="60" height="60" rx="12" fill="#0a0a0c"/>
  <rect x="2" y="2" width="60" height="60" rx="12" fill="none" stroke="url(#g)" stroke-width="2"/>
  <g transform="translate(7 6) scale(0.50)" fill="url(#g)" filter="url(#b)">
    <path d="M 24 54 L 24 34 C 24 25, 27 20, 32 22 C 33 14, 41 13, 45 18 C 47 10, 53 10, 55 18 C 59 13, 67 14, 68 22 C 73 20, 76 25, 76 34 L 76 54 L 68 54 C 68 44, 62 40, 50 40 C 38 40, 32 44, 32 54 Z"/>
    <path d="M 22 54 L 32 54 C 33 57, 40 59, 50 59 C 60 59, 67 57, 68 54 L 78 54 C 81 66, 81 78, 76 86 C 68 94, 56 96, 50 96 C 44 96, 32 94, 24 86 C 19 78, 19 66, 22 54 Z"/>
    <path d="M 33 44 L 44 40 L 44 43 L 33 47 Z"/>
    <path d="M 56 40 L 67 44 L 67 47 L 56 43 Z"/>
    <circle cx="40" cy="50" r="2.4"/>
    <circle cx="60" cy="50" r="2.4"/>
  </g>
</svg>
